<?xml version="1.0" encoding="utf-8"?>
<!-- Generator: Adobe Illustrator 24.0.1, SVG Export Plug-In . SVG Version: 6.00 Build 0)  -->
<svg version="1.1" id="Vrstva_1" xmlns="http://www.w3.org/2000/svg" xmlns:xlink="http://www.w3.org/1999/xlink" x="0px" y="0px"
	 viewBox="0 0 469.8 53.3" style="enable-background:new 0 0 469.8 53.3;" xml:space="preserve">
<style type="text/css">
	.st0{fill:#76B82A;}
	.st1{fill:#4A4A49;}
</style>
<g>
	<g>
		<g>
			<rect x="6" y="22.8" class="st0" width="72.5" height="7.7"/>
			<path class="st0" d="M67.6,15.1c-16.5-5.3-34.2-5.3-50.6,0c0-2.6,0-5.1,0-7.7c16.5-5.3,34.2-5.3,50.6,0
				C67.6,10,67.6,12.6,67.6,15.1z"/>
			<path class="st0" d="M67.6,38.1c-16.5,5.3-34.2,5.3-50.6,0c0,2.6,0,5.1,0,7.7c16.5,5.3,34.2,5.3,50.6,0
				C67.6,43.3,67.6,40.7,67.6,38.1z"/>
		</g>
		<g>
			<g>
				<path class="st1" d="M100.2,41.1v-29h23.9v2.7h-21.3v23.6h22.3v2.6H100.2z"/>
				<path class="st1" d="M148.6,41.1H146l-14-29h2.8l12.5,25.7l12.6-25.7h2.9L148.6,41.1z"/>
				<path class="st1" d="M194.4,27.3c-1.6,1.1-3.7,1.5-4.8,1.6l7.4,12.3h-3.1l-7.3-12.3H174v12.3h-2.7v-29h17.1
					c2.9,0,3.8,0.2,5.5,1.2c2.4,1.3,3.8,4.7,3.8,7.2C197.6,22.9,196.4,25.8,194.4,27.3z M192.6,15.7c-1-0.6-2.1-0.9-5.4-0.9H174
					v11.4h13.2c3.1,0,4.4-0.2,5.6-1.1c1.5-1.1,2.2-3,2.2-4.8C195,18.4,194.3,16.7,192.6,15.7z"/>
				<path class="st1" d="M222.9,41.8c-8.7,0-15.7-6.3-15.7-15.2c0-8.6,7-15.1,15.5-15.1c8.6,0,15.7,6.3,15.7,15.1
					C238.4,35.4,231.4,41.8,222.9,41.8z M222.8,14.1c-7,0-13.1,5.1-13.1,12.4c0,7.4,5.7,12.6,13,12.6c7.1,0,13-5.1,13-12.4
					C235.8,19.5,230,14.1,222.8,14.1z"/>
				<path class="st1" d="M252.2,14.8v26.4h-2.6v-29h23.7v2.7H252.2z"/>
				<path class="st1" d="M283.7,41.1v-29h2.6v29H283.7z"/>
				<path class="st1" d="M324.3,41.1l-20.4-24.8v24.8h-2.6v-29h2.6l20.5,24.8V12.1h2.6v29H324.3z"/>
			</g>
			<path class="st1" d="M106,25.3h13.4V28H106V25.3z"/>
			<path class="st1" d="M255.3,25.3h13.4V28h-13.4V25.3z"/>
		</g>
	</g>
	<g>
		<path class="st0" d="M351.9,14.3h-3.2v9.1h3.2c2.9,0,4.8-2,4.8-4.6v0C356.8,16.3,354.8,14.3,351.9,14.3z M355.7,18.9
			c0,2-1.5,3.6-3.8,3.6h-2.1v-7.2h2.1C354.2,15.2,355.7,16.8,355.7,18.9L355.7,18.9z"/>
		<rect x="361.6" y="14.3" class="st0" width="1" height="9.1"/>
		<path class="st0" d="M375.8,22.2v-3.6H372v0.9h2.8v2.3c-0.6,0.5-1.6,0.9-2.6,0.9c-2.2,0-3.6-1.6-3.6-3.8v0c0-2,1.4-3.7,3.5-3.7
			c1.3,0,2.1,0.4,2.8,1l0.7-0.8c-0.9-0.8-1.9-1.2-3.4-1.2c-2.7,0-4.6,2.2-4.6,4.7v0c0,2.6,1.8,4.7,4.6,4.7
			C373.7,23.5,374.9,22.9,375.8,22.2z"/>
		<rect x="380.8" y="14.3" class="st0" width="1" height="9.1"/>
		<polygon class="st0" points="386.4,15.2 389.5,15.2 389.5,23.4 390.5,23.4 390.5,15.2 393.6,15.2 393.6,14.3 386.4,14.3 		"/>
		<path class="st0" d="M400.2,14.2l-4.1,9.2h1.1l1.1-2.4h5l1.1,2.4h1.1l-4.1-9.2H400.2z M398.6,20.1l2.1-4.6l2.1,4.6H398.6z"/>
		<polygon class="st0" points="415.8,22.4 410.7,22.4 410.7,14.3 409.7,14.3 409.7,23.4 415.8,23.4 		"/>
		<path class="st0" d="M433.4,23.6l0.8-0.6l-1.6-1.6c0.5-0.7,0.9-1.4,1.3-2.3l-0.8-0.4c-0.3,0.8-0.7,1.4-1.1,2l-2.1-2.1
			c1.3-0.5,2.1-1.2,2.1-2.4v0c0-1.1-0.9-2.1-2.2-2.1c-1.4,0-2.4,1-2.4,2.2v0c0,0.7,0.3,1.3,0.9,2c-1.4,0.5-2.2,1.4-2.2,2.6v0
			c0,1.5,1.2,2.5,2.9,2.5c1.2,0,2.1-0.5,3-1.4L433.4,23.6z M428.4,16.3c0-0.7,0.6-1.3,1.4-1.3c0.7,0,1.3,0.5,1.3,1.3v0
			c0,0.8-0.6,1.3-1.8,1.7C428.6,17.3,428.4,16.9,428.4,16.3L428.4,16.3z M429.1,22.7c-1.1,0-1.9-0.7-1.9-1.7v0
			c0-0.8,0.5-1.5,1.7-1.9l2.4,2.5C430.7,22.2,429.9,22.7,429.1,22.7z"/>
		<polygon class="st0" points="348.8,30.8 351.8,30.8 351.8,39 352.9,39 352.9,30.8 355.9,30.8 355.9,29.9 348.8,29.9 		"/>
		<polygon class="st0" points="361.5,34.9 366.4,34.9 366.4,33.9 361.5,33.9 361.5,30.8 367,30.8 367,29.9 360.4,29.9 360.4,39 
			367.1,39 367.1,38.1 361.5,38.1 		"/>
		<path class="st0" d="M375.9,38.2c-2,0-3.5-1.7-3.5-3.8v0c0-2.1,1.5-3.7,3.5-3.7c1.2,0,2.1,0.5,2.9,1.2l0.7-0.8
			c-0.9-0.9-1.9-1.4-3.5-1.4c-2.7,0-4.6,2.1-4.6,4.7v0c0,2.6,1.9,4.7,4.6,4.7c1.7,0,2.7-0.6,3.6-1.6l-0.7-0.7
			C378,37.7,377.2,38.2,375.9,38.2z"/>
		<polygon class="st0" points="390.2,33.9 385,33.9 385,29.9 383.9,29.9 383.9,39 385,39 385,34.9 390.2,34.9 390.2,39 391.2,39 
			391.2,29.9 390.2,29.9 		"/>
		<polygon class="st0" points="403.1,37.2 397.4,29.9 396.4,29.9 396.4,39 397.4,39 397.4,31.5 403.3,39 404.1,39 404.1,29.9 
			403.1,29.9 		"/>
		<path class="st0" d="M412.9,29.7c-2.8,0-4.7,2.2-4.7,4.7v0c0,2.5,1.9,4.7,4.6,4.7c2.8,0,4.7-2.2,4.7-4.7v0
			C417.5,31.9,415.7,29.7,412.9,29.7z M416.5,34.5c0,2.1-1.5,3.7-3.6,3.7c-2.1,0-3.6-1.7-3.6-3.8v0c0-2.1,1.5-3.7,3.6-3.7
			C414.9,30.7,416.5,32.4,416.5,34.5L416.5,34.5z"/>
		<polygon class="st0" points="422.7,29.9 421.6,29.9 421.6,39 427.8,39 427.8,38 422.7,38 		"/>
		<path class="st0" d="M435.2,29.7c-2.8,0-4.7,2.2-4.7,4.7v0c0,2.5,1.9,4.7,4.6,4.7c2.8,0,4.7-2.2,4.7-4.7v0
			C439.9,31.9,438,29.7,435.2,29.7z M438.8,34.5c0,2.1-1.5,3.7-3.6,3.7s-3.6-1.7-3.6-3.8v0c0-2.1,1.5-3.7,3.6-3.7
			C437.3,30.7,438.8,32.4,438.8,34.5L438.8,34.5z"/>
		<path class="st0" d="M448.1,35.1h2.8v2.3c-0.6,0.5-1.6,0.9-2.6,0.9c-2.2,0-3.6-1.6-3.6-3.8v0c0-2,1.4-3.7,3.5-3.7
			c1.3,0,2.1,0.4,2.8,1l0.7-0.8c-0.9-0.8-1.9-1.2-3.4-1.2c-2.7,0-4.6,2.2-4.6,4.7v0c0,2.6,1.8,4.7,4.6,4.7c1.5,0,2.8-0.6,3.7-1.4
			v-3.6h-3.8V35.1z"/>
		<polygon class="st0" points="462.6,29.9 459.5,34.4 456.4,29.9 455.2,29.9 459,35.4 459,39 460,39 460,35.4 463.8,29.9 		"/>
	</g>
</g>
</svg>
