<svg id="Vrstva_1" data-name="Vrstva 1" xmlns="http://www.w3.org/2000/svg" width="165.73mm" height="18.8mm" viewBox="0 0 469.78 53.28"><defs><style>.cls-1{fill:#fff;}</style></defs><title>Evrofin-logo-white</title><rect class="cls-1" x="5.98" y="22.81" width="72.5" height="7.67"/><path class="cls-1" d="M67.55,15.13a82,82,0,0,0-50.64,0V7.47a81.89,81.89,0,0,1,50.64,0Z"/><path class="cls-1" d="M67.55,38.15a81.89,81.89,0,0,1-50.64,0v7.67a81.89,81.89,0,0,0,50.64,0Z"/><path class="cls-1" d="M100.24,41.15v-29h23.94v2.73H102.85V38.5h22.27v2.65Z"/><path class="cls-1" d="M148.55,41.15H146l-14-29h2.8L147.27,37.8l12.61-25.66h2.92Z"/><path class="cls-1" d="M194.41,27.29a10.44,10.44,0,0,1-4.75,1.59L197,41.15H194l-7.32-12.27H174V41.15h-2.72v-29h17.09c2.92,0,3.78.23,5.49,1.17,2.41,1.32,3.82,4.67,3.82,7.2A8.81,8.81,0,0,1,194.41,27.29Zm-1.83-11.61c-1-.62-2.06-.89-5.41-.89H174V26.23h13.2c3.08,0,4.44-.19,5.61-1.05A6,6,0,0,0,195,20.36,5.22,5.22,0,0,0,192.58,15.68Z"/><path class="cls-1" d="M222.87,41.77c-8.68,0-15.73-6.35-15.73-15.19,0-8.64,7.05-15.06,15.54-15.06s15.72,6.3,15.72,15.14S231.44,41.77,222.87,41.77Zm0-27.64c-7,0-13.08,5.13-13.08,12.38s5.72,12.61,13,12.61c7.13,0,13-5.06,13-12.38A12.58,12.58,0,0,0,222.83,14.13Z"/><path class="cls-1" d="M252.22,14.79V41.15h-2.61v-29h23.71v2.65Z"/><path class="cls-1" d="M283.68,41.15v-29h2.57v29Z"/><path class="cls-1" d="M324.32,41.15,303.88,16.31V41.15h-2.64v-29h2.64L324.36,36.9V12.14H327v29Z"/><path class="cls-1" d="M106,25.3h13.39V28H106Z"/><path class="cls-1" d="M255.31,25.3H268.7V28H255.31Z"/><path class="cls-1" d="M351.92,14.29h-3.16v9.1h3.16a4.56,4.56,0,0,0,4.84-4.55v0A4.54,4.54,0,0,0,351.92,14.29Zm3.77,4.58a3.52,3.52,0,0,1-3.77,3.57h-2.13v-7.2h2.13a3.54,3.54,0,0,1,3.77,3.6Z"/><rect class="cls-1" x="361.62" y="14.29" width="1.03" height="9.1"/><path class="cls-1" d="M375.79,22.16V18.53H372v.92h2.77v2.27a4.3,4.3,0,0,1-2.62.91,3.52,3.52,0,0,1-3.6-3.79v0A3.56,3.56,0,0,1,372,15.08a3.83,3.83,0,0,1,2.77,1l.67-.78a4.79,4.79,0,0,0-3.4-1.21,4.56,4.56,0,0,0-4.56,4.7v0a4.46,4.46,0,0,0,4.63,4.68A5.52,5.52,0,0,0,375.79,22.16Z"/><rect class="cls-1" x="380.8" y="14.29" width="1.03" height="9.1"/><polygon class="cls-1" points="386.44 15.24 389.49 15.24 389.49 23.39 390.53 23.39 390.53 15.24 393.59 15.24 393.59 14.29 386.44 14.29 386.44 15.24"/><path class="cls-1" d="M400.18,14.23,396,23.39h1.05l1.08-2.4h5l1.06,2.4h1.11l-4.15-9.16Zm-1.61,5.84,2.08-4.65,2.06,4.65Z"/><polygon class="cls-1" points="415.83 22.44 410.71 22.44 410.71 14.29 409.68 14.29 409.68 23.39 415.83 23.39 415.83 22.44"/><path class="cls-1" d="M433.39,23.57l.78-.59-1.58-1.63a12.73,12.73,0,0,0,1.31-2.29l-.85-.39a10.78,10.78,0,0,1-1.09,2l-2.08-2.12c1.33-.47,2.15-1.21,2.15-2.36v0a2.11,2.11,0,0,0-2.21-2.05,2.22,2.22,0,0,0-2.41,2.15v0a3,3,0,0,0,.91,2c-1.39.55-2.19,1.42-2.19,2.63v0A2.61,2.61,0,0,0,429,23.52a4,4,0,0,0,3-1.41Zm-5-7.28A1.3,1.3,0,0,1,429.78,15a1.24,1.24,0,0,1,1.29,1.26v0c0,.78-.6,1.34-1.76,1.73-.69-.74-.91-1.15-.91-1.68Zm.66,6.36a1.75,1.75,0,0,1-1.89-1.71v0c0-.77.53-1.51,1.74-1.95l2.43,2.51A3.1,3.1,0,0,1,429.06,22.65Z"/><polygon class="cls-1" points="348.76 30.84 351.82 30.84 351.82 38.99 352.86 38.99 352.86 30.84 355.91 30.84 355.91 29.89 348.76 29.89 348.76 30.84"/><polygon class="cls-1" points="361.46 34.87 366.43 34.87 366.43 33.93 361.46 33.93 361.46 30.83 367.02 30.83 367.02 29.89 360.44 29.89 360.44 38.99 367.08 38.99 367.08 38.06 361.46 38.06 361.46 34.87"/><path class="cls-1" d="M375.93,38.2a3.59,3.59,0,0,1-3.52-3.76v0a3.57,3.57,0,0,1,3.52-3.74,4,4,0,0,1,2.86,1.25l.71-.75A4.73,4.73,0,0,0,376,29.74a4.59,4.59,0,0,0-4.61,4.7v0a4.54,4.54,0,0,0,4.57,4.68,4.75,4.75,0,0,0,3.64-1.6l-.68-.66A4,4,0,0,1,375.93,38.2Z"/><polygon class="cls-1" points="390.22 33.93 384.97 33.93 384.97 29.89 383.94 29.89 383.94 38.99 384.97 38.99 384.97 34.9 390.22 34.9 390.22 38.99 391.25 38.99 391.25 29.89 390.22 29.89 390.22 33.93"/><polygon class="cls-1" points="403.12 37.19 397.38 29.89 396.42 29.89 396.42 38.99 397.42 38.99 397.42 31.53 403.3 38.99 404.12 38.99 404.12 29.89 403.12 29.89 403.12 37.19"/><path class="cls-1" d="M412.89,29.74a4.6,4.6,0,0,0-4.65,4.7v0a4.64,4.64,0,1,0,9.28,0v0A4.57,4.57,0,0,0,412.89,29.74Zm3.56,4.73a3.57,3.57,0,0,1-3.56,3.73,3.62,3.62,0,0,1-3.59-3.76v0a3.58,3.58,0,1,1,7.15,0Z"/><polygon class="cls-1" points="422.67 29.89 421.64 29.89 421.64 38.99 427.79 38.99 427.79 38.04 422.67 38.04 422.67 29.89"/><path class="cls-1" d="M435.24,29.74a4.6,4.6,0,0,0-4.65,4.7v0a4.56,4.56,0,0,0,4.62,4.68,4.62,4.62,0,0,0,4.66-4.71v0A4.57,4.57,0,0,0,435.24,29.74Zm3.56,4.73a3.57,3.57,0,0,1-3.56,3.73,3.62,3.62,0,0,1-3.59-3.76v0a3.58,3.58,0,0,1,3.56-3.74,3.63,3.63,0,0,1,3.59,3.76Z"/><path class="cls-1" d="M448.11,35.05h2.77v2.27a4.36,4.36,0,0,1-2.63.91,3.52,3.52,0,0,1-3.6-3.79v0a3.56,3.56,0,0,1,3.46-3.74,3.83,3.83,0,0,1,2.77,1.05l.66-.78a4.78,4.78,0,0,0-3.39-1.21,4.57,4.57,0,0,0-4.57,4.7v0a4.46,4.46,0,0,0,4.63,4.68,5.55,5.55,0,0,0,3.66-1.39V34.13h-3.76Z"/><polygon class="cls-1" points="462.6 29.89 459.51 34.44 456.44 29.89 455.19 29.89 458.98 35.39 458.98 38.99 460.02 38.99 460.02 35.38 463.8 29.89 462.6 29.89"/></svg>