<?xml version="1.0" encoding="utf-8"?>
<!-- Generator: Adobe Illustrator 25.3.1, SVG Export Plug-In . SVG Version: 6.00 Build 0)  -->
<svg version="1.1" id="Vrstva_1" xmlns="http://www.w3.org/2000/svg" xmlns:xlink="http://www.w3.org/1999/xlink" x="0px" y="0px"
	 viewBox="0 0 50 50" style="enable-background:new 0 0 50 50;" xml:space="preserve">
<style type="text/css">
	.st0{fill:#231F20;}
	.st1{fill:#D7141A;}
	.st2{fill:#FFFFFF;}
	.st3{fill:#11457E;}
</style>
<g id="XMLID_1483_">
	<g id="XMLID_1487_">
		<polygon id="XMLID_1492_" class="st0" points="25,4.5 25,4.5 25,4.5 		"/>
		<path id="XMLID_1491_" class="st0" d="M25,45.5C25,45.5,25,45.5,25,45.5L25,45.5C25,45.5,25,45.5,25,45.5z"/>
		<path id="XMLID_1490_" class="st1" d="M45.5,25L45.5,25H28.3l0,0L9,37.9c3.8,4.7,9.5,7.7,16,7.7h0C36.3,45.5,45.5,36.3,45.5,25z"
			/>
		<path id="XMLID_1489_" class="st2" d="M9,12.1L28.3,25h17.2c0-11.3-9.2-20.5-20.5-20.5h0C18.5,4.5,12.8,7.4,9,12.1z"/>
		<path id="XMLID_1488_" class="st3" d="M28.3,25L9,12.1c-2.8,3.5-4.6,8-4.6,12.9l0,0c0,4.9,1.7,9.4,4.6,12.9L28.3,25L28.3,25z"/>
	</g>
</g>
</svg>
