<?xml version="1.0" encoding="utf-8"?>
<!-- Generator: Adobe Illustrator 25.3.1, SVG Export Plug-In . SVG Version: 6.00 Build 0)  -->
<svg version="1.1" id="Vrstva_1" xmlns="http://www.w3.org/2000/svg" xmlns:xlink="http://www.w3.org/1999/xlink" x="0px" y="0px"
	 viewBox="0 0 50 50" style="enable-background:new 0 0 50 50;" xml:space="preserve">
<style type="text/css">
	.st0{fill:#FFFFFF;}
	.st1{fill:#ED1C24;}
	.st2{fill:#11457E;}
</style>
<g id="XMLID_4319_">
	<g id="XMLID_4328_">
		<path id="XMLID_4331_" class="st0" d="M44.4,18.2H5.6C8.5,10.2,16.1,4.5,25,4.5C33.9,4.5,41.5,10.2,44.4,18.2z"/>
		<path id="XMLID_4330_" class="st1" d="M44.4,31.9c-2.8,8-10.4,13.7-19.4,13.7c-8.9,0-16.5-5.7-19.4-13.7H44.4z"/>
		<path id="XMLID_4329_" class="st2" d="M45.5,25c0,2.4-0.4,4.7-1.2,6.9H5.6c-0.8-2.1-1.2-4.5-1.2-6.9c0-2.4,0.4-4.7,1.2-6.8h38.7
			C45.1,20.3,45.5,22.6,45.5,25z"/>
	</g>
	<g id="XMLID_4320_">
		<path id="XMLID_4324_" class="st0" d="M29.1,21.4c0-0.3,0-0.7,0-0.9L29,18.2l-0.1-4.2H11.5l-0.1,4.2l-0.1,2.3c0,0.3,0,0.6,0,0.9
			c-0.1,2.9-0.3,6.8,2.9,10.4c0.2,0.2,0.3,0.4,0.5,0.5l0,0l0.4,0.3c1.3,1.1,2.7,2.1,4.2,2.9l0.8,0.5l0.8-0.5
			c1.5-0.8,2.9-1.8,4.2-2.9l0.4-0.3l0,0c0.2-0.2,0.4-0.4,0.5-0.5C29.4,28.3,29.2,24.3,29.1,21.4z M26.8,29.7c-0.4,0.7-1,1.4-1.7,2.1
			l0,0l-0.4,0.3c-1.2,1.1-2.6,2-4.1,2.8l-0.5,0.3l-0.5-0.3c-1.5-0.8-2.8-1.7-4.1-2.8l-0.4-0.3l0,0c-0.7-0.7-1.2-1.4-1.7-2.1
			c-2-3.3-1.6-6.7-1.5-9.2l0.1-2.4l0.1-3.4h15.8l0.1,3.4l0.1,2.4C28.3,23,28.8,26.5,26.8,29.7z"/>
		<path id="XMLID_4323_" class="st1" d="M28.3,20.5c0.1,2.5,0.5,5.9-1.5,9.2c-1.8-2.8-3.4-1.1-4-0.5c-0.7-1.3-1.4-1.9-1.9-2.1v-3.3
			c1.4,0,2.9,0.2,4.3,0.5v-2.4c-1.4,0.3-2.8,0.4-4.3,0.5v-1.8c0-0.1,0-0.3,0-0.4c1.1,0,2.3,0.2,3.4,0.5v-2.4
			c-1.1,0.3-2.2,0.4-3.3,0.5c0.1-1,0.2-2,0.3-3H19c0.2,1,0.3,2,0.3,3c-1.1,0-2.2-0.2-3.3-0.5v2.4c1.1-0.3,2.2-0.4,3.4-0.5
			c0,0.1,0,0.3,0,0.4v1.8c-1.4,0-2.9-0.2-4.3-0.5v2.4c1.4-0.3,2.8-0.4,4.3-0.5v3.3c-0.5,0.2-1.2,0.8-1.9,2.1c-0.6-0.6-2.2-2.3-4,0.5
			c-2-3.3-1.6-6.7-1.5-9.2l0.2-5.8h7.9h7.9L28.3,20.5z"/>
		<path id="XMLID_4322_" class="st0" d="M25.2,21.9v2.4c-1.4-0.3-2.8-0.4-4.3-0.5v3.3C20.6,27,20.4,27,20.3,27c-0.1,0-0.1,0-0.2,0
			c-0.1,0-0.3,0-0.6,0.2l0,0v-3.3c-1.4,0-2.9,0.2-4.3,0.5v-2.4c1.4,0.3,2.8,0.4,4.3,0.5v-1.8c0-0.1,0-0.3,0-0.4
			c-1.1,0-2.3,0.2-3.4,0.5v-2.4c1.1,0.3,2.2,0.4,3.3,0.5c-0.1-1-0.2-2-0.3-3h2.2c-0.2,1-0.3,2-0.3,3c1.1-0.1,2.2-0.2,3.3-0.5v2.4
			c-1.1-0.3-2.2-0.4-3.4-0.5c0,0.1,0,0.3,0,0.4v1.8C22.3,22.3,23.8,22.2,25.2,21.9z"/>
		<path id="XMLID_4321_" class="st2" d="M22.8,29.3c-0.7-1.3-1.4-1.9-1.9-2.1C20.6,27,20.4,27,20.3,27c-0.1,0-0.1,0-0.2,0
			c-0.1,0-0.3,0-0.6,0.2l0,0c-0.5,0.2-1.2,0.8-1.9,2.1c-0.6-0.6-2.2-2.3-4,0.5c0.4,0.7,1,1.4,1.7,2.1l0.4,0.3c1.2,1.1,2.6,2,4.1,2.8
			l0.5,0.3l0.5-0.3c1.5-0.8,2.8-1.7,4.1-2.8l0.4-0.3c0.7-0.7,1.3-1.4,1.7-2.1C25,27,23.4,28.7,22.8,29.3z"/>
	</g>
</g>
</svg>
